<?xml version="1.0" encoding="UTF-8"?>
<!DOCTYPE svg PUBLIC "-//W3C//DTD SVG 1.1//EN" "http://www.w3.org/Graphics/SVG/1.1/DTD/svg11.dtd">
<!-- Creator: CorelDRAW Home & Student 2019 -->
<svg xmlns="http://www.w3.org/2000/svg" xml:space="preserve" width="210mm" height="297mm" version="1.1" style="shape-rendering:geometricPrecision; text-rendering:geometricPrecision; image-rendering:optimizeQuality; fill-rule:evenodd; clip-rule:evenodd"
viewBox="0 0 21000 29700"
 xmlns:xlink="http://www.w3.org/1999/xlink">
 <defs>
  <style type="text/css">
   <![CDATA[
    .str0 {stroke:black;stroke-width:100;stroke-miterlimit:22.9256}
    .str2 {stroke:black;stroke-width:100;stroke-miterlimit:4}
    .str1 {stroke:#030404;stroke-width:100;stroke-miterlimit:22.9256}
    .fil3 {fill:none}
    .fil5 {fill:black}
    .fil2 {fill:#030404}
    .fil1 {fill:#73CDDD}
    .fil0 {fill:#F6D3A2}
    .fil4 {fill:white}
   ]]>
  </style>
 </defs>
 <g id="Red">
  <metadata id="CorelCorpID_0Corel-Layer"/>
  <g id="_805438896">
   <path class="fil0 str0" d="M14153.41 22722.64c-0.38,-0.47 -0.38,-0.74 0.05,-1.34 9.28,-13.11 222.01,-186.98 351.44,-303.37 117.63,-105.78 166.45,-164.09 233.69,-209.42 59.7,-40.26 133.92,-70.28 218.8,-79.36 88.23,-9.44 187.99,3.74 277.19,39.24 103.1,41.04 192.1,111.91 285.59,197.72 109.44,100.43 225.04,221.33 324.8,389.34 114.38,192.64 207.9,447.22 117.39,654.84 -89.3,204.79 -357.68,363.9 -568.82,360.91 -187.59,-2.65 -330.01,-133.21 -430.25,-248.06 -88.29,-101.18 -143.86,-190.17 -208.77,-283.1 -63.48,-90.89 -135.91,-185.56 -264.96,-287.64 -133.56,-105.66 -327.8,-219.26 -336.15,-229.76z"/>
   <path class="fil0 str0" d="M16536.58 14702.69c-235.05,-148.33 -418,-350.95 -419.06,-550.58 -1,-193.28 168.52,-383.75 407.39,-385.49 286.56,45.95 716.88,179.23 976.17,314.17 113.55,59.1 194.3,118.52 260.16,218.4 58.24,88.35 104.84,208.34 85.35,299.01 -18.78,87.41 -99.02,147.56 -142.64,224.45 -44.24,77.95 -50.84,173.1 -117.31,231.54 -72.22,63.49 -215.1,83.65 -340.92,62.27 -278.19,-47.27 -473.06,-297.59 -709.14,-413.77z"/>
   <path class="fil0 str0" d="M7152.25 22926.77c1.25,-0.65 1.4,-0.9 0.74,-2.13 -8.76,-16.33 -158.08,-204.56 -277.15,-333.59 -118.16,-128.05 -206.51,-197.8 -297.91,-265.57 -90.63,-67.19 -184.25,-132.43 -303.93,-145.09 -134.96,-14.29 -303.08,38.28 -473.85,129.02 -184.5,98.03 -372.1,240.6 -519.98,391.76 -147.54,150.82 -255.53,310.19 -263.13,474.95 -6.54,142.23 61.74,288.47 157.91,390.31 89.1,94.33 202.13,150.55 321.49,180.43 114.31,28.62 234.44,33.07 339.23,3.95 115.86,-32.18 213.01,-105.37 333.06,-204.28 118.87,-97.95 260.2,-221.13 367.22,-306.99 104.49,-83.83 176.26,-132.08 309.53,-190.64 120.71,-53.05 291.87,-114.55 306.77,-122.13z"/>
   <path class="fil0 str0" d="M4735.53 14732.65c144.37,-115.61 340.16,-282.23 332.55,-473.38 -6.54,-164.21 -163.18,-346.5 -297.68,-340.88 -228.59,-52.96 -570.32,50.59 -859.94,160.56 -116.49,44.24 -224.56,89.52 -326.76,194.32 -97.69,100.19 -190.02,254.77 -175.73,365.76 12.58,97.64 107.69,161.56 156.07,237.64 46.83,73.62 49.93,158.63 95.35,222.31 49.86,69.93 150.78,114.15 246.95,121.17 226.82,16.54 427.34,-173.78 829.19,-487.5z"/>
   <path class="fil1 str0" d="M14827.18 5480.44c31.36,564.02 432.26,737.74 629.55,1089.88 221.41,395.16 186.41,1015 673.45,1132.06 229.05,-47.51 444.88,-158.01 617.11,-316.15 172.22,-158.13 300.82,-363.9 367.59,-588.03 66.77,-224.14 71.71,-466.64 14.1,-693.27 -57.59,-226.64 -177.74,-437.42 -346.73,-602.58 -168.99,-165.17 -386.86,-284.72 -602.26,-343.69 -215.4,-58.97 -428.37,-57.35 -661.89,-17.83 -233.54,39.53 -487.64,116.97 -690.92,339.61z"/>
   <path class="fil1 str0" d="M4837.47 7873.99c417.17,16.8 399.4,-289.47 600.57,-743.63 111.68,-252.09 290.8,-549.73 445.24,-765.87 246.5,-344.97 430.11,-482.3 190.9,-740.27 -166.37,-158.81 -442.4,-253.34 -685.03,-294.31 -242.63,-40.96 -451.86,-28.35 -667.07,32.56 -215.22,60.91 -436.44,170.13 -604.8,332.39 -168.37,162.26 -283.9,377.56 -335.64,607.19 -51.72,229.64 -39.64,473.61 34.51,697.04 74.14,223.43 210.36,426.32 389.11,579.43 178.73,153.11 399.99,256.45 632.21,295.47z"/>
   <path class="fil2 str1" d="M5130.84 7028.61c146.85,-5.8 181.74,-146.43 250.91,-270.1 70.28,-125.65 175.97,-233.79 72.53,-369.35 -41.06,-50.58 -94.93,-90.72 -155.12,-115.55 -60.21,-24.83 -126.74,-34.35 -191.5,-27.41 -64.75,6.94 -127.75,30.34 -181.33,67.36 -53.58,37.02 -97.74,87.67 -127.14,145.78 -29.39,58.12 -44.01,123.71 -42.08,188.81 1.93,65.1 20.39,129.7 53.17,185.98 32.79,56.28 79.88,104.23 135.57,138.01 55.66,33.78 119.92,53.38 184.99,56.47z"/>
   <path class="fil2 str1" d="M15465.61 6278.52c-17.77,191.14 100.83,209.78 125.82,267.35 20.72,47.67 -22.78,122.04 148.72,218.3 59.37,16.17 122.57,18.13 182.81,5.65 60.23,-12.47 117.49,-39.4 165.52,-77.82 48.05,-38.43 86.88,-88.35 112.29,-144.37 25.42,-56.02 37.43,-118.13 34.7,-179.58 -2.72,-61.46 -20.18,-122.26 -50.44,-175.81 -30.28,-53.55 -73.38,-99.85 -124.62,-133.87 -51.27,-34.02 -110.67,-55.76 -171.76,-62.87 -61.12,-7.11 -123.91,0.42 -181.61,21.77 -57.69,21.36 -110.28,56.53 -152.03,101.7 -41.74,45.18 -72.64,100.35 -89.4,159.55z"/>
   <path class="fil1 str0" d="M14902.13 5547.83c-320.84,-332.68 -660.69,-553.44 -1100.4,-741.17 -449.15,-191.75 -1002.5,-349.04 -1594,-431.89 -601.51,-84.26 -1242.5,-91.55 -1844.33,-69.28 -575.82,21.31 -1115.81,69.67 -1676,177.65 -548.52,105.73 -1116.39,268.63 -1593.12,486.68 -435.73,199.3 -795.31,444.69 -1089.05,727.95 -24.36,23.49 -48.26,47.23 -71.71,71.24 -183.49,187.77 -339.84,391.47 -479.24,620.15 -79.66,130.66 -153.79,269.49 -224.28,418.16 -33.94,71.58 -67.03,145.43 -99.16,221.29 -110.88,261.76 -210.31,547.37 -293.37,845.38 -36.39,130.54 -69.63,263.44 -99.3,397.76 -123.8,560.17 -185.78,1144.94 -192.98,1785 -7.07,629.26 38.79,1311.97 94.38,1833.66 56.54,530.54 123.16,894.56 136.52,1380.03 14.63,531.22 -34.48,1207.85 -65,2047.55 -31.79,875.14 -43.37,1927.39 -70.88,2703.66 -27.29,770.68 -70.28,1269.32 37.54,1866.43 87.07,482.22 272.52,1028.67 543.88,1459.65 224.84,357.1 508.67,634.94 723.97,812.3 176.52,145.43 306.97,223.31 453.28,318.76 129.87,84.71 272.23,183.26 393.52,262.26 144.15,93.86 258.56,160.1 473.2,247.91 251.65,102.95 641.09,235.56 1044.27,332.81 498.04,120.12 1017.05,186.28 1671.96,196.9 753.71,12.22 1687.47,-49.12 2414.59,-177.78 658.07,-116.44 1146.87,-288.01 1515.16,-443.69 300.24,-126.91 520.36,-243.27 706.3,-362.35 144.93,-92.81 269.09,-187.28 424.87,-343.31 189.92,-190.24 426.86,-472 632.81,-818.79 233.19,-392.66 426.68,-868.69 568.21,-1297.65 169.1,-512.54 264.05,-957.88 306.03,-1573.63 44.53,-652.89 29.5,-1497.36 13.88,-2317.1 -17.1,-895.95 -34.9,-1762.33 -40.16,-2608.37 -5.18,-833.6 1.83,-1647.44 3.59,-2458.75 1.64,-761 -1.33,-1519.78 -112.07,-2238.28 -62.95,-408.41 -160.7,-803.81 -284.86,-1176.59 -110.95,-333.08 -242.96,-648.1 -390.03,-938.21 -86.69,-171.01 -178.61,-333.36 -274.54,-485.65 -169.58,-269.21 -351.67,-506.98 -539.47,-705.55 -7.99,-8.45 -15.99,-16.83 -24.01,-25.14z"/>
   <path class="fil3 str2" d="M5255.8 23637.52c68.17,-238.74 190.04,-470.89 445.31,-731.53"/>
   <path class="fil3 str2" d="M15708.3 23677.95c23.88,-215.89 -128.46,-512.4 -317.42,-762.62"/>
   <path class="fil4 str0" d="M9908.84 7188.34c0,-232.76 -46.29,-465.52 -135.37,-680.57 -89.07,-215.04 -220.92,-412.37 -385.51,-576.95 -164.58,-164.59 -361.91,-296.44 -576.95,-385.51 -215.05,-89.08 -447.82,-135.38 -680.58,-135.38 -232.75,0 -465.51,46.3 -680.55,135.38 -215.05,89.07 -412.38,220.92 -576.96,385.51 -164.59,164.58 -296.44,361.91 -385.52,576.95 -89.07,215.05 -135.36,447.81 -135.36,680.57 0,232.76 46.29,465.52 135.36,680.56 89.08,215.05 220.93,412.37 385.52,576.96 164.58,164.59 361.91,296.43 576.96,385.51 215.04,89.07 447.8,135.37 680.55,135.37 232.76,0 465.53,-46.3 680.58,-135.37 215.04,-89.08 412.37,-220.92 576.95,-385.51 164.59,-164.59 296.44,-361.91 385.51,-576.96 89.08,-215.04 135.37,-447.8 135.37,-680.56z"/>
   <path class="fil5 str0" d="M7770.51 7259.24c0,-155.99 -64.62,-311.98 -174.92,-422.29 -110.29,-110.3 -266.29,-174.91 -422.27,-174.91 -155.99,0 -311.99,64.61 -422.29,174.91 -110.3,110.31 -174.91,266.29 -174.91,422.29 0,155.98 64.61,311.98 174.91,422.27 110.3,110.31 266.3,174.92 422.29,174.92 155.98,0 311.98,-64.62 422.27,-174.92 110.3,-110.3 174.92,-266.29 174.92,-422.27z"/>
   <path class="fil4" d="M7632.46 7446.73c0,-38.42 -15.91,-76.84 -43.08,-104.01 -27.16,-27.16 -65.59,-43.07 -104,-43.07 -38.42,0 -76.83,15.91 -104.01,43.07 -27.16,27.17 -43.07,65.59 -43.07,104.01 0,38.42 15.91,76.84 43.07,104 27.18,27.17 65.59,43.08 104.01,43.08 38.41,0 76.84,-15.92 104,-43.08 27.17,-27.17 43.08,-65.59 43.08,-104z"/>
   <path class="fil3 str2" d="M17684.25 14863.46c-56.92,-94.19 -185.29,-186.83 -385.09,-277.89"/>
   <path class="fil3 str2" d="M3573.41 14892.54c68.88,-100.14 175.49,-179.55 319.84,-238.2"/>
   <path class="fil4 str0" d="M9830.99 9670.83c-55.73,392.34 -223.43,973.34 -123.48,1344.15 89.93,283.42 384.35,376.63 642.86,241.32 114.24,-47.87 178.26,-201.57 184.03,-270.6 13.71,-437.85 27.41,-875.71 41.12,-1313.56 -238.47,-1.32 -506.06,0.01 -744.53,-1.31z"/>
   <path class="fil4 str0" d="M11309.05 9712.03c34.47,394.77 170.58,983.98 50.77,1348.85 -105.09,278.16 -404.13,355.34 -654.94,206.28 -111.52,-53.97 -167.15,-210.9 -169.19,-280.14 9.95,-437.95 19.88,-875.91 29.84,-1313.86 238.21,11.55 505.33,27.32 743.52,38.87z"/>
   <path class="fil4 str0" d="M14546.7 7040.63c0,-232.76 -46.29,-465.52 -135.36,-680.56 -89.08,-215.05 -220.92,-412.37 -385.52,-576.96 -164.58,-164.59 -361.9,-296.43 -576.95,-385.51 -215.05,-89.07 -447.81,-135.37 -680.56,-135.37 -232.76,0 -465.53,46.3 -680.57,135.37 -215.05,89.08 -412.36,220.92 -576.96,385.51 -164.59,164.59 -296.44,361.91 -385.51,576.96 -89.06,215.04 -135.37,447.8 -135.37,680.56 0,232.76 46.31,465.53 135.37,680.57 89.07,215.04 220.92,412.37 385.51,576.95 164.6,164.59 361.91,296.44 576.96,385.51 215.04,89.08 447.81,135.38 680.57,135.38 232.75,0 465.51,-46.3 680.56,-135.38 215.05,-89.07 412.37,-220.92 576.95,-385.51 164.6,-164.58 296.44,-361.91 385.52,-576.95 89.07,-215.04 135.36,-447.81 135.36,-680.57z"/>
   <path class="fil5 str0" d="M12384.31 7146.98c0,-155.99 -64.61,-311.98 -174.91,-422.28 -110.3,-110.3 -266.29,-174.91 -422.29,-174.91 -155.98,0 -311.97,64.61 -422.27,174.91 -110.3,110.3 -174.92,266.29 -174.92,422.28 0,155.99 64.62,311.98 174.92,422.28 110.3,110.3 266.29,174.92 422.27,174.91 156,0 311.99,-64.61 422.29,-174.92 110.3,-110.3 174.91,-266.28 174.91,-422.27z"/>
   <path class="fil4" d="M12254.88 7316.99c0,-38.43 -15.91,-76.84 -43.07,-104.01 -27.18,-27.16 -65.6,-43.08 -104.01,-43.08 -38.41,0 -76.84,15.92 -104.01,43.08 -27.16,27.17 -43.07,65.58 -43.07,104.01 0,38.41 15.91,76.83 43.07,104 27.17,27.16 65.6,43.08 104.01,43.08 38.41,0 76.83,-15.92 104.01,-43.09 27.16,-27.16 43.07,-65.58 43.07,-103.99z"/>
   <path class="fil0 str0" d="M9077.66 9471.57c-38.28,168.21 8.1,377.95 161.37,491.89 153.27,113.94 413.41,132.09 649.37,72.6 235.94,-59.49 447.7,-196.63 632.21,-197.63 184.51,-1.01 341.81,134.1 567.69,203.68 225.86,69.57 520.29,73.61 703.81,-17.15 183.51,-90.74 256.12,-276.28 222.9,-450.67 -33.22,-174.39 -172.25,-337.64 -323.85,-459.1 -151.6,-121.47 -315.78,-201.15 -510.41,-256.39 -194.62,-55.24 -419.69,-86.03 -645.02,-88.26 -225.33,-2.24 -450.91,24.09 -646.61,75.43 -195.69,51.33 -361.47,127.67 -505.84,229.19 -144.38,101.51 -267.33,228.2 -305.62,396.41z"/>
   <path class="fil2 str0" d="M9682.47 8728.63c0,80.16 37.03,166.34 106.27,236.55 69.24,70.21 170.67,124.45 290.65,161.5 119.97,37.05 258.47,56.9 396.97,56.9 138.53,0 277.04,-19.85 397,-56.9 119.97,-37.05 221.36,-91.29 290.63,-161.5 69.26,-70.22 106.38,-156.41 108.4,-241.59 2,-85.18 -31.08,-169.36 -98.33,-238.57 -67.24,-69.2 -168.63,-123.45 -288.6,-160.49 -119.95,-37.05 -258.48,-56.9 -396.99,-56.9 -138.51,0 -277.01,19.85 -398.99,61.91 -121.99,42.06 -227.46,106.33 -298.73,175.55 -71.25,69.21 -108.28,143.37 -108.28,223.54z"/>
  </g>
 </g>
</svg>
